<svg xmlns="http://www.w3.org/2000/svg" version="1.0" width="70.000000pt" height="70.000000pt" viewBox="0 0 1024.000000 1024.000000" preserveAspectRatio="xMidYMid meet">
  <metadata>
    Created by potrace 1.16, written by Peter Selinger 2001-2019
  </metadata>
  <g transform="translate(0.000000,1024.000000) scale(0.100000,-0.100000)" fill="#ff0000" stroke="none">
    <path d="M4322 7669 c-197 -39 -331 -211 -320 -413 6 -119 41 -184 165 -312 116 -118 188 -220 248 -347 69 -146 72 -134 -42 -189 -106 -51 -283 -178 -351 -252 -23 -25 -45 -46 -48 -46 -13 0 -334 182 -393 224 -110 76 -217 190 -306 326 -91 139 -141 190 -224 229 -49 23 -68 26 -161 26 -93 0 -111 -3 -163 -27 -161 -76 -259 -255 -230 -424 20 -116 78 -205 178 -274 68 -47 118 -58 290 -64 273 -9 404 -45 658 -183 86 -48 157 -90 157 -95 0 -5 -17 -43 -39 -86 -105 -210 -148 -425 -138 -689 l6 -152 -46 -7 c-73 -11 -238 4 -357 32 -195 47 -321 20 -432 -90 -195 -196 -139 -519 111 -642 55 -27 69 -29 170 -29 101 0 115 2 170 29 41 20 95 64 170 136 105 101 179 158 272 210 24 13 44 22 46 19 3 -2 25 -45 51 -96 26 -51 60 -108 74 -127 15 -20 43 -57 62 -83 57 -77 147 -169 226 -229 76 -58 80 -63 65 -79 -4 -6 -32 -55 -61 -110 -129 -245 -249 -381 -453 -512 -116 -74 -158 -111 -194 -167 -153 -238 -13 -555 267 -606 150 -27 307 38 394 164 60 87 68 122 76 331 8 202 29 314 81 435 37 86 169 330 178 330 5 0 37 -11 72 -24 125 -47 252 -68 440 -75 l176 -6 -12 -55 c-48 -223 -47 -219 -36 -281 35 -201 193 -339 388 -341 86 0 158 21 232 70 60 40 101 90 140 172 22 48 26 68 26 155 0 93 -2 105 -33 168 -25 50 -59 94 -128 164 l-94 95 97 58 c175 103 369 294 474 466 29 46 56 84 61 84 5 0 49 -27 97 -60 141 -97 248 -210 344 -368 100 -164 200 -226 367 -227 87 0 101 3 163 32 251 119 311 444 117 640 -89 91 -187 123 -376 123 -196 0 -361 37 -522 118 -41 20 -75 39 -77 42 -1 3 6 50 17 105 21 110 28 313 15 432 l-8 72 83 25 c282 86 471 95 709 35 114 -29 221 -24 307 15 34 16 62 32 62 37 0 4 9 11 21 14 34 11 107 121 130 197 26 85 22 173 -12 261 -30 78 -124 177 -205 214 -53 25 -70 28 -164 28 -97 0 -110 -2 -170 -31 -48 -23 -91 -57 -160 -126 -185 -184 -338 -269 -618 -347 l-72 -20 -41 82 c-71 141 -161 266 -265 370 -55 53 -116 109 -136 124 -21 14 -38 33 -38 40 0 8 51 65 113 126 85 85 135 125 206 167 116 68 170 121 213 208 31 62 33 74 33 167 0 97 -2 104 -38 177 -119 243 -429 297 -628 111 -95 -89 -119 -160 -124 -363 -4 -160 -20 -270 -55 -375 l-20 -61 -84 27 c-182 60 -359 80 -565 67 -68 -5 -126 -7 -128 -5 -2 2 -11 40 -19 83 -24 119 -21 315 6 439 42 193 42 195 30 263 -28 164 -156 297 -318 331 -60 12 -88 13 -150 0z m606 -1522 c77 -28 126 -103 126 -192 0 -75 -27 -131 -83 -169 -135 -94 -311 -15 -328 146 -5 46 -1 65 20 111 21 46 34 61 79 86 58 34 124 40 186 18z m-403 -897 c212 -106 254 -398 80 -559 -72 -67 -123 -86 -230 -86 -82 0 -96 3 -157 33 -260 128 -243 516 27 622 74 29 211 24 280 -10z m1130 -36 c161 -41 293 -168 339 -325 22 -73 21 -203 -3 -278 -49 -158 -190 -287 -351 -322 -76 -16 -204 -7 -273 20 -213 83 -340 312 -298 533 36 182 181 336 357 377 62 14 165 12 229 -5z" />
    <animate attributeName="opacity" dur="1s" values="0;1;0" repeatCount="indefinite" begin="0.1" />
  </g>
</svg>
