<?xml version="1.0" standalone="no"?>
<!DOCTYPE svg PUBLIC "-//W3C//DTD SVG 20010904//EN"
 "http://www.w3.org/TR/2001/REC-SVG-20010904/DTD/svg10.dtd">
<svg version="1.0" xmlns="http://www.w3.org/2000/svg"
 width="300.000000pt" height="300.000000pt" viewBox="0 0 300.000000 300.000000"
 preserveAspectRatio="xMidYMid meet">
<metadata>
Created by potrace 1.10, written by Peter Selinger 2001-2011
</metadata>
<g transform="translate(0.000000,300.000000) scale(0.100000,-0.100000)"
fill="#000000" stroke="none">
<path d="M1229 2234 c-52 -33 -73 -99 -48 -147 7 -12 29 -41 50 -64 34 -37 85
-122 77 -127 -2 -1 -21 -13 -42 -26 -22 -13 -54 -37 -72 -52 l-32 -29 -51 31
c-84 49 -110 72 -147 127 -52 79 -99 98 -169 69 -62 -26 -86 -117 -44 -170 30
-39 55 -48 144 -57 60 -5 97 -15 146 -39 l66 -33 -25 -61 c-19 -45 -25 -81
-26 -138 l-1 -78 -38 0 c-21 0 -58 5 -82 11 -33 8 -53 8 -80 -1 -95 -31 -100
-178 -8 -217 54 -22 92 -10 163 52 35 30 67 55 72 55 4 0 17 -19 29 -42 12
-23 43 -62 69 -88 l48 -47 -25 -44 c-29 -52 -97 -125 -136 -145 -33 -18 -67
-69 -67 -102 0 -71 64 -128 132 -119 73 10 98 48 109 165 5 61 15 99 35 138
15 31 30 57 34 59 3 2 30 -3 60 -11 30 -8 74 -14 97 -14 l43 0 -6 -53 c-8 -64
11 -109 56 -132 105 -54 210 58 155 165 -8 16 -24 34 -35 40 -29 16 -25 23 30
59 45 29 112 103 123 134 7 21 83 -41 124 -100 42 -62 75 -83 129 -83 28 0 44
8 70 34 29 29 34 41 34 81 0 40 -5 52 -32 79 -30 30 -40 33 -108 39 -41 3 -97
14 -125 24 -49 18 -50 20 -45 53 3 19 4 61 4 92 -2 63 -6 59 81 78 38 9 69 8
128 -1 68 -11 81 -11 112 4 108 52 71 217 -49 217 -38 0 -52 -6 -98 -46 -51
-45 -126 -86 -178 -99 -22 -5 -28 0 -49 39 -13 25 -45 66 -72 91 l-48 45 51
42 c120 102 121 103 116 159 -7 74 -40 104 -114 104 -50 0 -58 -3 -85 -33 -24
-26 -29 -41 -29 -82 0 -27 -5 -72 -11 -99 -10 -48 -12 -50 -32 -39 -12 6 -65
14 -117 17 l-95 6 -3 65 c-2 36 2 82 8 103 14 46 1 93 -35 127 -32 30 -101 37
-136 14z m103 -19 c36 -15 48 -50 42 -127 -12 -182 -10 -188 84 -188 63 0 115
-9 154 -25 28 -11 49 35 55 125 4 59 11 88 25 106 11 13 23 22 28 19 5 -3 11
-1 15 5 11 18 62 10 88 -14 58 -54 48 -108 -30 -166 -32 -24 -68 -55 -81 -71
l-23 -28 61 -66 c33 -37 60 -72 60 -79 0 -6 11 -23 24 -38 24 -25 26 -26 67
-12 62 22 129 61 176 105 55 50 98 53 142 9 24 -25 29 -37 26 -67 -2 -21 -13
-46 -28 -60 -26 -27 -43 -29 -179 -20 -82 6 -139 -6 -162 -32 -9 -10 -15 -49
-18 -104 -4 -82 -3 -89 19 -111 25 -26 50 -32 171 -46 65 -7 80 -12 100 -36
18 -21 23 -35 19 -64 -2 -20 -7 -42 -11 -49 -14 -22 -61 -38 -99 -33 -33 4
-43 12 -77 62 -40 59 -107 120 -131 120 -14 0 -83 -70 -92 -94 -3 -7 -28 -28
-56 -46 -27 -18 -52 -39 -56 -48 -3 -9 10 -34 31 -61 31 -39 35 -51 31 -84 -5
-36 -39 -76 -59 -69 -5 1 -8 -1 -8 -6 0 -20 -57 -4 -87 24 -32 31 -33 34 -27
89 7 69 -7 85 -76 84 -25 0 -55 2 -67 5 -81 21 -91 16 -127 -57 -28 -58 -46
-136 -44 -190 1 -43 -15 -72 -50 -90 -56 -28 -125 4 -135 63 -6 33 17 88 40
97 10 4 29 17 43 30 14 13 28 23 32 23 3 0 23 23 43 50 20 28 40 48 43 46 4
-2 7 6 8 17 0 12 4 30 8 39 6 12 -6 31 -44 70 -29 29 -60 69 -71 89 -31 62
-61 58 -149 -20 -53 -47 -82 -55 -127 -33 -43 20 -62 75 -44 121 12 28 25 38
61 48 19 5 21 5 110 -3 58 -5 78 -3 87 7 6 8 13 52 15 99 3 61 10 99 27 133
21 46 21 50 6 67 -20 22 -105 64 -160 79 -22 6 -63 11 -92 11 -70 0 -108 30
-108 87 0 100 133 134 179 45 27 -52 101 -118 169 -152 l68 -33 27 26 c15 14
50 38 77 55 52 30 51 28 43 99 -2 11 -6 19 -10 17 -4 -3 -14 8 -22 23 -8 15
-31 45 -51 66 -32 34 -36 43 -33 85 3 40 8 49 36 68 31 21 58 24 94 9z"/>
<path d="M1370 1802 c-39 -39 -39 -75 -1 -113 37 -36 62 -37 100 -1 55 50 36
122 -36 137 -28 6 -38 2 -63 -23z m73 -3 c12 -7 25 -17 29 -23 27 -40 -15
-102 -60 -91 -55 13 -69 70 -26 104 31 25 29 24 57 10z"/>
<path d="M1219 1547 c-71 -48 -77 -127 -15 -184 76 -70 196 -19 196 83 0 99
-101 155 -181 101z m134 -37 c38 -42 37 -92 -2 -131 -85 -85 -224 31 -150 125
43 54 105 57 152 6z"/>
<path d="M1571 1544 c-61 -20 -111 -87 -111 -149 0 -94 102 -179 194 -161 38
8 92 49 111 86 29 56 17 139 -27 180 -56 53 -103 66 -167 44z m124 -34 c62
-38 83 -126 45 -187 -39 -65 -105 -85 -175 -54 -77 34 -105 129 -59 198 39 60
129 80 189 43z"/>
</g>
</svg>
